<?xml version="1.0" encoding="utf-8" standalone="no"?>
<!DOCTYPE svg PUBLIC "-//W3C//DTD SVG 1.1//EN"
  "http://www.w3.org/Graphics/SVG/1.1/DTD/svg11.dtd">
<svg xmlns:xlink="http://www.w3.org/1999/xlink" width="426.976744pt" height="305.460972pt" viewBox="0 0 426.976744 305.460972" xmlns="http://www.w3.org/2000/svg" version="1.1">
 <metadata>
  <rdf:RDF xmlns:dc="http://purl.org/dc/elements/1.1/" xmlns:cc="http://creativecommons.org/ns#" xmlns:rdf="http://www.w3.org/1999/02/22-rdf-syntax-ns#">
   <cc:Work>
    <dc:type rdf:resource="http://purl.org/dc/dcmitype/StillImage"/>
    <dc:date>2026-04-11T21:47:48.653155</dc:date>
    <dc:format>image/svg+xml</dc:format>
    <dc:creator>
     <cc:Agent>
      <dc:title>Matplotlib v3.10.8, https://matplotlib.org/</dc:title>
     </cc:Agent>
    </dc:creator>
   </cc:Work>
  </rdf:RDF>
 </metadata>
 <defs>
  <style type="text/css">*{stroke-linejoin: round; stroke-linecap: butt}</style>
 </defs>
 <g id="figure_1">
  <g id="patch_1">
   <path d="M 0 305.460972 
L 426.976744 305.460972 
L 426.976744 0 
L 0 0 
L 0 305.460972 
z
" style="fill: none"/>
  </g>
  <g id="axes_1">
   <g id="patch_2">
    <path d="M 39.432558 145.148799 
L 155.469767 145.148799 
Q 160.626977 145.148799 160.626977 139.99159 
L 160.626977 43.293916 
Q 160.626977 38.136706 155.469767 38.136706 
L 39.432558 38.136706 
Q 34.275349 38.136706 34.275349 43.293916 
L 34.275349 139.99159 
Q 34.275349 145.148799 39.432558 145.148799 
z
" clip-path="url(#p23ac2de585)" style="fill: #f5f5f0; stroke: #cccccc; stroke-width: 0.8; stroke-linejoin: miter"/>
   </g>
   <g id="patch_3">
    <path d="M 271.506977 145.148799 
L 387.544186 145.148799 
Q 392.701395 145.148799 392.701395 139.99159 
L 392.701395 43.293916 
Q 392.701395 38.136706 387.544186 38.136706 
L 271.506977 38.136706 
Q 266.349767 38.136706 266.349767 43.293916 
L 266.349767 139.99159 
Q 266.349767 145.148799 271.506977 145.148799 
z
" clip-path="url(#p23ac2de585)" style="fill: #f5f5f0; stroke: #cccccc; stroke-width: 0.8; stroke-linejoin: miter"/>
   </g>
   <g id="patch_4">
    <path d="M 39.432558 280.525544 
L 155.469767 280.525544 
Q 160.626977 280.525544 160.626977 275.368334 
L 160.626977 178.67066 
Q 160.626977 173.513451 155.469767 173.513451 
L 39.432558 173.513451 
Q 34.275349 173.513451 34.275349 178.67066 
L 34.275349 275.368334 
Q 34.275349 280.525544 39.432558 280.525544 
z
" clip-path="url(#p23ac2de585)" style="fill: #f5f5f0; stroke: #cccccc; stroke-width: 0.8; stroke-linejoin: miter"/>
   </g>
   <g id="patch_5">
    <path d="M 271.506977 280.525544 
L 387.544186 280.525544 
Q 392.701395 280.525544 392.701395 275.368334 
L 392.701395 178.67066 
Q 392.701395 173.513451 387.544186 173.513451 
L 271.506977 173.513451 
Q 266.349767 173.513451 266.349767 178.67066 
L 266.349767 275.368334 
Q 266.349767 280.525544 271.506977 280.525544 
z
" clip-path="url(#p23ac2de585)" style="fill: #f5f5f0; stroke: #cccccc; stroke-width: 0.8; stroke-linejoin: miter"/>
   </g>
   <g id="line2d_1">
    <path d="M 97.451163 83.906939 
L 78.111628 103.246474 
" clip-path="url(#p23ac2de585)" style="fill: none; stroke: #888888; stroke-width: 2.2; stroke-linecap: round"/>
   </g>
   <g id="line2d_2">
    <path d="M 97.451163 83.906939 
L 116.790698 103.246474 
" clip-path="url(#p23ac2de585)" style="fill: none; stroke: #888888; stroke-width: 2.2; stroke-linecap: round"/>
   </g>
   <g id="line2d_3">
    <path d="M 323.188774 87.205672 
L 327.938092 114.140393 
" clip-path="url(#p23ac2de585)" style="fill: none; stroke: #888888; stroke-width: 2.2; stroke-linecap: round"/>
   </g>
   <g id="line2d_4">
    <path d="M 323.188774 87.205672 
L 350.123495 82.456354 
" clip-path="url(#p23ac2de585)" style="fill: none; stroke: #888888; stroke-width: 2.2; stroke-linecap: round"/>
   </g>
   <g id="line2d_5">
    <path d="M 97.451163 219.283683 
L 78.111628 238.623218 
" clip-path="url(#p23ac2de585)" style="fill: none; stroke: #888888; stroke-width: 2.2; stroke-linecap: round"/>
   </g>
   <g id="line2d_6">
    <path d="M 97.451163 219.283683 
L 116.790698 238.623218 
" clip-path="url(#p23ac2de585)" style="fill: none; stroke: #888888; stroke-width: 2.2; stroke-linecap: round"/>
   </g>
   <g id="line2d_7">
    <path d="M 323.188774 222.582416 
L 327.938092 249.517138 
" clip-path="url(#p23ac2de585)" style="fill: none; stroke: #888888; stroke-width: 2.2; stroke-linecap: round"/>
   </g>
   <g id="line2d_8">
    <path d="M 323.188774 222.582416 
L 350.123495 217.833098 
" clip-path="url(#p23ac2de585)" style="fill: none; stroke: #888888; stroke-width: 2.2; stroke-linecap: round"/>
   </g>
   <g id="patch_6">
    <path d="M 97.451163 95.51066 
C 100.528506 95.51066 103.480223 94.288019 105.656233 92.112009 
C 107.832242 89.935999 109.054884 86.984282 109.054884 83.906939 
C 109.054884 80.829596 107.832242 77.877879 105.656233 75.701869 
C 103.480223 73.525859 100.528506 72.303218 97.451163 72.303218 
C 94.37382 72.303218 91.422103 73.525859 89.246093 75.701869 
C 87.070083 77.877879 85.847442 80.829596 85.847442 83.906939 
C 85.847442 86.984282 87.070083 89.935999 89.246093 92.112009 
C 91.422103 94.288019 94.37382 95.51066 97.451163 95.51066 
z
" clip-path="url(#p23ac2de585)" style="fill: #e04040; stroke: #ffffff; stroke-width: 1.4; stroke-linejoin: miter"/>
   </g>
   <g id="patch_7">
    <path d="M 78.111628 111.626939 
C 80.334153 111.626939 82.465949 110.74392 84.037512 109.172358 
C 85.609074 107.600795 86.492093 105.468999 86.492093 103.246474 
C 86.492093 101.023949 85.609074 98.892153 84.037512 97.32059 
C 82.465949 95.749027 80.334153 94.866009 78.111628 94.866009 
C 75.889103 94.866009 73.757307 95.749027 72.185744 97.32059 
C 70.614181 98.892153 69.731163 101.023949 69.731163 103.246474 
C 69.731163 105.468999 70.614181 107.600795 72.185744 109.172358 
C 73.757307 110.74392 75.889103 111.626939 78.111628 111.626939 
z
" clip-path="url(#p23ac2de585)" style="fill: #4090e0; stroke: #ffffff; stroke-width: 1.4; stroke-linejoin: miter"/>
   </g>
   <g id="patch_8">
    <path d="M 116.790698 111.626939 
C 119.013223 111.626939 121.145019 110.74392 122.716581 109.172358 
C 124.288144 107.600795 125.171163 105.468999 125.171163 103.246474 
C 125.171163 101.023949 124.288144 98.892153 122.716581 97.32059 
C 121.145019 95.749027 119.013223 94.866009 116.790698 94.866009 
C 114.568172 94.866009 112.436377 95.749027 110.864814 97.32059 
C 109.293251 98.892153 108.410233 101.023949 108.410233 103.246474 
C 108.410233 105.468999 109.293251 107.600795 110.864814 109.172358 
C 112.436377 110.74392 114.568172 111.626939 116.790698 111.626939 
z
" clip-path="url(#p23ac2de585)" style="fill: #4090e0; stroke: #ffffff; stroke-width: 1.4; stroke-linejoin: miter"/>
   </g>
   <g id="patch_9">
    <path d="M 323.188774 98.809393 
C 326.266116 98.809393 329.217833 97.586752 331.393843 95.410742 
C 333.569853 93.234732 334.792495 90.283015 334.792495 87.205672 
C 334.792495 84.12833 333.569853 81.176612 331.393843 79.000603 
C 329.217833 76.824593 326.266116 75.601951 323.188774 75.601951 
C 320.111431 75.601951 317.159714 76.824593 314.983704 79.000603 
C 312.807694 81.176612 311.585053 84.12833 311.585053 87.205672 
C 311.585053 90.283015 312.807694 93.234732 314.983704 95.410742 
C 317.159714 97.586752 320.111431 98.809393 323.188774 98.809393 
z
" clip-path="url(#p23ac2de585)" style="fill: #e04040; stroke: #ffffff; stroke-width: 1.4; stroke-linejoin: miter"/>
   </g>
   <g id="patch_10">
    <path d="M 327.938092 122.520858 
C 330.160617 122.520858 332.292413 121.63784 333.863975 120.066277 
C 335.435538 118.494714 336.318557 116.362919 336.318557 114.140393 
C 336.318557 111.917868 335.435538 109.786072 333.863975 108.21451 
C 332.292413 106.642947 330.160617 105.759928 327.938092 105.759928 
C 325.715566 105.759928 323.583771 106.642947 322.012208 108.21451 
C 320.440645 109.786072 319.557627 111.917868 319.557627 114.140393 
C 319.557627 116.362919 320.440645 118.494714 322.012208 120.066277 
C 323.583771 121.63784 325.715566 122.520858 327.938092 122.520858 
z
" clip-path="url(#p23ac2de585)" style="fill: #4090e0; stroke: #ffffff; stroke-width: 1.4; stroke-linejoin: miter"/>
   </g>
   <g id="patch_11">
    <path d="M 350.123495 90.836819 
C 352.34602 90.836819 354.477816 89.953801 356.049378 88.382238 
C 357.620941 86.810675 358.50396 84.67888 358.50396 82.456354 
C 358.50396 80.233829 357.620941 78.102033 356.049378 76.530471 
C 354.477816 74.958908 352.34602 74.075889 350.123495 74.075889 
C 347.900969 74.075889 345.769174 74.958908 344.197611 76.530471 
C 342.626048 78.102033 341.743029 80.233829 341.743029 82.456354 
C 341.743029 84.67888 342.626048 86.810675 344.197611 88.382238 
C 345.769174 89.953801 347.900969 90.836819 350.123495 90.836819 
z
" clip-path="url(#p23ac2de585)" style="fill: #4090e0; stroke: #ffffff; stroke-width: 1.4; stroke-linejoin: miter"/>
   </g>
   <g id="patch_12">
    <path d="M 97.451163 230.887404 
C 100.528506 230.887404 103.480223 229.664763 105.656233 227.488753 
C 107.832242 225.312743 109.054884 222.361026 109.054884 219.283683 
C 109.054884 216.20634 107.832242 213.254623 105.656233 211.078613 
C 103.480223 208.902603 100.528506 207.679962 97.451163 207.679962 
C 94.37382 207.679962 91.422103 208.902603 89.246093 211.078613 
C 87.070083 213.254623 85.847442 216.20634 85.847442 219.283683 
C 85.847442 222.361026 87.070083 225.312743 89.246093 227.488753 
C 91.422103 229.664763 94.37382 230.887404 97.451163 230.887404 
z
" clip-path="url(#p23ac2de585)" style="fill: #e04040; stroke: #ffffff; stroke-width: 1.4; stroke-linejoin: miter"/>
   </g>
   <g id="patch_13">
    <path d="M 78.111628 247.003683 
C 80.334153 247.003683 82.465949 246.120664 84.037512 244.549102 
C 85.609074 242.977539 86.492093 240.845743 86.492093 238.623218 
C 86.492093 236.400693 85.609074 234.268897 84.037512 232.697334 
C 82.465949 231.125772 80.334153 230.242753 78.111628 230.242753 
C 75.889103 230.242753 73.757307 231.125772 72.185744 232.697334 
C 70.614181 234.268897 69.731163 236.400693 69.731163 238.623218 
C 69.731163 240.845743 70.614181 242.977539 72.185744 244.549102 
C 73.757307 246.120664 75.889103 247.003683 78.111628 247.003683 
z
" clip-path="url(#p23ac2de585)" style="fill: #4090e0; stroke: #ffffff; stroke-width: 1.4; stroke-linejoin: miter"/>
   </g>
   <g id="patch_14">
    <path d="M 116.790698 247.003683 
C 119.013223 247.003683 121.145019 246.120664 122.716581 244.549102 
C 124.288144 242.977539 125.171163 240.845743 125.171163 238.623218 
C 125.171163 236.400693 124.288144 234.268897 122.716581 232.697334 
C 121.145019 231.125772 119.013223 230.242753 116.790698 230.242753 
C 114.568172 230.242753 112.436377 231.125772 110.864814 232.697334 
C 109.293251 234.268897 108.410233 236.400693 108.410233 238.623218 
C 108.410233 240.845743 109.293251 242.977539 110.864814 244.549102 
C 112.436377 246.120664 114.568172 247.003683 116.790698 247.003683 
z
" clip-path="url(#p23ac2de585)" style="fill: #4090e0; stroke: #ffffff; stroke-width: 1.4; stroke-linejoin: miter"/>
   </g>
   <g id="patch_15">
    <path d="M 323.188774 234.186137 
C 326.266116 234.186137 329.217833 232.963496 331.393843 230.787486 
C 333.569853 228.611476 334.792495 225.659759 334.792495 222.582416 
C 334.792495 219.505074 333.569853 216.553357 331.393843 214.377347 
C 329.217833 212.201337 326.266116 210.978696 323.188774 210.978696 
C 320.111431 210.978696 317.159714 212.201337 314.983704 214.377347 
C 312.807694 216.553357 311.585053 219.505074 311.585053 222.582416 
C 311.585053 225.659759 312.807694 228.611476 314.983704 230.787486 
C 317.159714 232.963496 320.111431 234.186137 323.188774 234.186137 
z
" clip-path="url(#p23ac2de585)" style="fill: #e04040; stroke: #ffffff; stroke-width: 1.4; stroke-linejoin: miter"/>
   </g>
   <g id="patch_16">
    <path d="M 327.938092 257.897603 
C 330.160617 257.897603 332.292413 257.014584 333.863975 255.443021 
C 335.435538 253.871459 336.318557 251.739663 336.318557 249.517138 
C 336.318557 247.294612 335.435538 245.162817 333.863975 243.591254 
C 332.292413 242.019691 330.160617 241.136672 327.938092 241.136672 
C 325.715566 241.136672 323.583771 242.019691 322.012208 243.591254 
C 320.440645 245.162817 319.557627 247.294612 319.557627 249.517138 
C 319.557627 251.739663 320.440645 253.871459 322.012208 255.443021 
C 323.583771 257.014584 325.715566 257.897603 327.938092 257.897603 
z
" clip-path="url(#p23ac2de585)" style="fill: #4090e0; stroke: #ffffff; stroke-width: 1.4; stroke-linejoin: miter"/>
   </g>
   <g id="patch_17">
    <path d="M 350.123495 226.213564 
C 352.34602 226.213564 354.477816 225.330545 356.049378 223.758982 
C 357.620941 222.187419 358.50396 220.055624 358.50396 217.833098 
C 358.50396 215.610573 357.620941 213.478777 356.049378 211.907215 
C 354.477816 210.335652 352.34602 209.452633 350.123495 209.452633 
C 347.900969 209.452633 345.769174 210.335652 344.197611 211.907215 
C 342.626048 213.478777 341.743029 215.610573 341.743029 217.833098 
C 341.743029 220.055624 342.626048 222.187419 344.197611 223.758982 
C 345.769174 225.330545 347.900969 226.213564 350.123495 226.213564 
z
" clip-path="url(#p23ac2de585)" style="fill: #4090e0; stroke: #ffffff; stroke-width: 1.4; stroke-linejoin: miter"/>
   </g>
   <g id="text_1">
    <!-- rotate $R$ -->
    <g style="fill: #333333" transform="translate(187.163372 83.626219) scale(0.13 -0.13)">
     <defs>
      <path id="DejaVuSans-72" d="M 2631 2963 
Q 2534 3019 2420 3045 
Q 2306 3072 2169 3072 
Q 1681 3072 1420 2755 
Q 1159 2438 1159 1844 
L 1159 0 
L 581 0 
L 581 3500 
L 1159 3500 
L 1159 2956 
Q 1341 3275 1631 3429 
Q 1922 3584 2338 3584 
Q 2397 3584 2469 3576 
Q 2541 3569 2628 3553 
L 2631 2963 
z
" transform="scale(0.015625)"/>
      <path id="DejaVuSans-6f" d="M 1959 3097 
Q 1497 3097 1228 2736 
Q 959 2375 959 1747 
Q 959 1119 1226 758 
Q 1494 397 1959 397 
Q 2419 397 2687 759 
Q 2956 1122 2956 1747 
Q 2956 2369 2687 2733 
Q 2419 3097 1959 3097 
z
M 1959 3584 
Q 2709 3584 3137 3096 
Q 3566 2609 3566 1747 
Q 3566 888 3137 398 
Q 2709 -91 1959 -91 
Q 1206 -91 779 398 
Q 353 888 353 1747 
Q 353 2609 779 3096 
Q 1206 3584 1959 3584 
z
" transform="scale(0.015625)"/>
      <path id="DejaVuSans-74" d="M 1172 4494 
L 1172 3500 
L 2356 3500 
L 2356 3053 
L 1172 3053 
L 1172 1153 
Q 1172 725 1289 603 
Q 1406 481 1766 481 
L 2356 481 
L 2356 0 
L 1766 0 
Q 1100 0 847 248 
Q 594 497 594 1153 
L 594 3053 
L 172 3053 
L 172 3500 
L 594 3500 
L 594 4494 
L 1172 4494 
z
" transform="scale(0.015625)"/>
      <path id="DejaVuSans-61" d="M 2194 1759 
Q 1497 1759 1228 1600 
Q 959 1441 959 1056 
Q 959 750 1161 570 
Q 1363 391 1709 391 
Q 2188 391 2477 730 
Q 2766 1069 2766 1631 
L 2766 1759 
L 2194 1759 
z
M 3341 1997 
L 3341 0 
L 2766 0 
L 2766 531 
Q 2569 213 2275 61 
Q 1981 -91 1556 -91 
Q 1019 -91 701 211 
Q 384 513 384 1019 
Q 384 1609 779 1909 
Q 1175 2209 1959 2209 
L 2766 2209 
L 2766 2266 
Q 2766 2663 2505 2880 
Q 2244 3097 1772 3097 
Q 1472 3097 1187 3025 
Q 903 2953 641 2809 
L 641 3341 
Q 956 3463 1253 3523 
Q 1550 3584 1831 3584 
Q 2591 3584 2966 3190 
Q 3341 2797 3341 1997 
z
" transform="scale(0.015625)"/>
      <path id="DejaVuSans-65" d="M 3597 1894 
L 3597 1613 
L 953 1613 
Q 991 1019 1311 708 
Q 1631 397 2203 397 
Q 2534 397 2845 478 
Q 3156 559 3463 722 
L 3463 178 
Q 3153 47 2828 -22 
Q 2503 -91 2169 -91 
Q 1331 -91 842 396 
Q 353 884 353 1716 
Q 353 2575 817 3079 
Q 1281 3584 2069 3584 
Q 2775 3584 3186 3129 
Q 3597 2675 3597 1894 
z
M 3022 2063 
Q 3016 2534 2758 2815 
Q 2500 3097 2075 3097 
Q 1594 3097 1305 2825 
Q 1016 2553 972 2059 
L 3022 2063 
z
" transform="scale(0.015625)"/>
      <path id="DejaVuSans-20" transform="scale(0.015625)"/>
      <path id="DejaVuSans-Oblique-52" d="M 1613 4147 
L 1294 2491 
L 2106 2491 
Q 2584 2491 2879 2755 
Q 3175 3019 3175 3444 
Q 3175 3784 2976 3965 
Q 2778 4147 2406 4147 
L 1613 4147 
z
M 2772 2241 
Q 2972 2194 3105 2009 
Q 3238 1825 3413 1275 
L 3809 0 
L 3144 0 
L 2778 1197 
Q 2638 1659 2453 1815 
Q 2269 1972 1888 1972 
L 1191 1972 
L 806 0 
L 172 0 
L 1081 4666 
L 2503 4666 
Q 3150 4666 3495 4373 
Q 3841 4081 3841 3531 
Q 3841 3044 3547 2687 
Q 3253 2331 2772 2241 
z
" transform="scale(0.015625)"/>
     </defs>
     <use xlink:href="#DejaVuSans-72" transform="translate(0 0.09375)"/>
     <use xlink:href="#DejaVuSans-6f" transform="translate(41.113281 0.09375)"/>
     <use xlink:href="#DejaVuSans-74" transform="translate(102.294922 0.09375)"/>
     <use xlink:href="#DejaVuSans-61" transform="translate(141.503906 0.09375)"/>
     <use xlink:href="#DejaVuSans-74" transform="translate(202.783203 0.09375)"/>
     <use xlink:href="#DejaVuSans-65" transform="translate(241.992188 0.09375)"/>
     <use xlink:href="#DejaVuSans-20" transform="translate(303.515625 0.09375)"/>
     <use xlink:href="#DejaVuSans-Oblique-52" transform="translate(335.302734 0.09375)"/>
    </g>
   </g>
   <g id="text_2">
    <!-- rotate $R$ -->
    <g style="fill: #333333" transform="translate(187.163372 219.002964) scale(0.13 -0.13)">
     <use xlink:href="#DejaVuSans-72" transform="translate(0 0.09375)"/>
     <use xlink:href="#DejaVuSans-6f" transform="translate(41.113281 0.09375)"/>
     <use xlink:href="#DejaVuSans-74" transform="translate(102.294922 0.09375)"/>
     <use xlink:href="#DejaVuSans-61" transform="translate(141.503906 0.09375)"/>
     <use xlink:href="#DejaVuSans-74" transform="translate(202.783203 0.09375)"/>
     <use xlink:href="#DejaVuSans-65" transform="translate(241.992188 0.09375)"/>
     <use xlink:href="#DejaVuSans-20" transform="translate(303.515625 0.09375)"/>
     <use xlink:href="#DejaVuSans-Oblique-52" transform="translate(335.302734 0.09375)"/>
    </g>
   </g>
   <g id="text_3">
    <!-- predict $f$ -->
    <g style="fill: #333333" transform="translate(76.529419 186.566125) rotate(-90) scale(0.13 -0.13)">
     <defs>
      <path id="DejaVuSans-70" d="M 1159 525 
L 1159 -1331 
L 581 -1331 
L 581 3500 
L 1159 3500 
L 1159 2969 
Q 1341 3281 1617 3432 
Q 1894 3584 2278 3584 
Q 2916 3584 3314 3078 
Q 3713 2572 3713 1747 
Q 3713 922 3314 415 
Q 2916 -91 2278 -91 
Q 1894 -91 1617 61 
Q 1341 213 1159 525 
z
M 3116 1747 
Q 3116 2381 2855 2742 
Q 2594 3103 2138 3103 
Q 1681 3103 1420 2742 
Q 1159 2381 1159 1747 
Q 1159 1113 1420 752 
Q 1681 391 2138 391 
Q 2594 391 2855 752 
Q 3116 1113 3116 1747 
z
" transform="scale(0.015625)"/>
      <path id="DejaVuSans-64" d="M 2906 2969 
L 2906 4863 
L 3481 4863 
L 3481 0 
L 2906 0 
L 2906 525 
Q 2725 213 2448 61 
Q 2172 -91 1784 -91 
Q 1150 -91 751 415 
Q 353 922 353 1747 
Q 353 2572 751 3078 
Q 1150 3584 1784 3584 
Q 2172 3584 2448 3432 
Q 2725 3281 2906 2969 
z
M 947 1747 
Q 947 1113 1208 752 
Q 1469 391 1925 391 
Q 2381 391 2643 752 
Q 2906 1113 2906 1747 
Q 2906 2381 2643 2742 
Q 2381 3103 1925 3103 
Q 1469 3103 1208 2742 
Q 947 2381 947 1747 
z
" transform="scale(0.015625)"/>
      <path id="DejaVuSans-69" d="M 603 3500 
L 1178 3500 
L 1178 0 
L 603 0 
L 603 3500 
z
M 603 4863 
L 1178 4863 
L 1178 4134 
L 603 4134 
L 603 4863 
z
" transform="scale(0.015625)"/>
      <path id="DejaVuSans-63" d="M 3122 3366 
L 3122 2828 
Q 2878 2963 2633 3030 
Q 2388 3097 2138 3097 
Q 1578 3097 1268 2742 
Q 959 2388 959 1747 
Q 959 1106 1268 751 
Q 1578 397 2138 397 
Q 2388 397 2633 464 
Q 2878 531 3122 666 
L 3122 134 
Q 2881 22 2623 -34 
Q 2366 -91 2075 -91 
Q 1284 -91 818 406 
Q 353 903 353 1747 
Q 353 2603 823 3093 
Q 1294 3584 2113 3584 
Q 2378 3584 2631 3529 
Q 2884 3475 3122 3366 
z
" transform="scale(0.015625)"/>
      <path id="DejaVuSans-Oblique-66" d="M 3059 4863 
L 2969 4384 
L 2419 4384 
Q 2106 4384 1964 4261 
Q 1822 4138 1753 3809 
L 1691 3500 
L 2638 3500 
L 2553 3053 
L 1606 3053 
L 1013 0 
L 434 0 
L 1031 3053 
L 481 3053 
L 563 3500 
L 1113 3500 
L 1159 3744 
Q 1278 4363 1576 4613 
Q 1875 4863 2516 4863 
L 3059 4863 
z
" transform="scale(0.015625)"/>
     </defs>
     <use xlink:href="#DejaVuSans-70" transform="translate(0 0.015625)"/>
     <use xlink:href="#DejaVuSans-72" transform="translate(63.476562 0.015625)"/>
     <use xlink:href="#DejaVuSans-65" transform="translate(104.589844 0.015625)"/>
     <use xlink:href="#DejaVuSans-64" transform="translate(166.113281 0.015625)"/>
     <use xlink:href="#DejaVuSans-69" transform="translate(229.589844 0.015625)"/>
     <use xlink:href="#DejaVuSans-63" transform="translate(257.373047 0.015625)"/>
     <use xlink:href="#DejaVuSans-74" transform="translate(312.353516 0.015625)"/>
     <use xlink:href="#DejaVuSans-20" transform="translate(351.5625 0.015625)"/>
     <use xlink:href="#DejaVuSans-Oblique-66" transform="translate(383.349609 0.015625)"/>
    </g>
   </g>
   <g id="text_4">
    <!-- predict $f$ -->
    <g style="fill: #333333" transform="translate(308.603837 186.566125) rotate(-90) scale(0.13 -0.13)">
     <use xlink:href="#DejaVuSans-70" transform="translate(0 0.015625)"/>
     <use xlink:href="#DejaVuSans-72" transform="translate(63.476562 0.015625)"/>
     <use xlink:href="#DejaVuSans-65" transform="translate(104.589844 0.015625)"/>
     <use xlink:href="#DejaVuSans-64" transform="translate(166.113281 0.015625)"/>
     <use xlink:href="#DejaVuSans-69" transform="translate(229.589844 0.015625)"/>
     <use xlink:href="#DejaVuSans-63" transform="translate(257.373047 0.015625)"/>
     <use xlink:href="#DejaVuSans-74" transform="translate(312.353516 0.015625)"/>
     <use xlink:href="#DejaVuSans-20" transform="translate(351.5625 0.015625)"/>
     <use xlink:href="#DejaVuSans-Oblique-66" transform="translate(383.349609 0.015625)"/>
    </g>
   </g>
   <g id="text_5">
    <!-- $\mathbf{x}$ -->
    <g style="fill: #555555" transform="translate(141.862558 60.907698) scale(0.13 -0.13)">
     <defs>
      <path id="DejaVuSans-Bold-78" d="M 1422 1791 
L 159 3500 
L 1344 3500 
L 2059 2463 
L 2784 3500 
L 3969 3500 
L 2706 1797 
L 4031 0 
L 2847 0 
L 2059 1106 
L 1281 0 
L 97 0 
L 1422 1791 
z
" transform="scale(0.015625)"/>
     </defs>
     <use xlink:href="#DejaVuSans-Bold-78" transform="translate(0 0.3125)"/>
    </g>
   </g>
   <g id="text_6">
    <!-- $R \cdot \mathbf{x}$ -->
    <g style="fill: #555555" transform="translate(355.736977 60.907698) scale(0.13 -0.13)">
     <defs>
      <path id="DejaVuSans-22c5" d="M 684 2619 
L 1344 2619 
L 1344 1825 
L 684 1825 
L 684 2619 
z
" transform="scale(0.015625)"/>
     </defs>
     <use xlink:href="#DejaVuSans-Oblique-52" transform="translate(0 0.09375)"/>
     <use xlink:href="#DejaVuSans-22c5" transform="translate(88.964844 0.09375)"/>
     <use xlink:href="#DejaVuSans-Bold-78" transform="translate(140.234375 0.09375)"/>
    </g>
   </g>
   <g id="text_7">
    <!-- $f(\mathbf{x})$ -->
    <g style="fill: #555555" transform="translate(127.172558 196.284443) scale(0.13 -0.13)">
     <defs>
      <path id="DejaVuSans-28" d="M 1984 4856 
Q 1566 4138 1362 3434 
Q 1159 2731 1159 2009 
Q 1159 1288 1364 580 
Q 1569 -128 1984 -844 
L 1484 -844 
Q 1016 -109 783 600 
Q 550 1309 550 2009 
Q 550 2706 781 3412 
Q 1013 4119 1484 4856 
L 1984 4856 
z
" transform="scale(0.015625)"/>
      <path id="DejaVuSans-29" d="M 513 4856 
L 1013 4856 
Q 1481 4119 1714 3412 
Q 1947 2706 1947 2009 
Q 1947 1309 1714 600 
Q 1481 -109 1013 -844 
L 513 -844 
Q 928 -128 1133 580 
Q 1338 1288 1338 2009 
Q 1338 2731 1133 3434 
Q 928 4138 513 4856 
z
" transform="scale(0.015625)"/>
     </defs>
     <use xlink:href="#DejaVuSans-Oblique-66" transform="translate(0 0.015625)"/>
     <use xlink:href="#DejaVuSans-28" transform="translate(35.205078 0.015625)"/>
     <use xlink:href="#DejaVuSans-Bold-78" transform="translate(74.21875 0.015625)"/>
     <use xlink:href="#DejaVuSans-29" transform="translate(138.720703 0.015625)"/>
    </g>
   </g>
   <g id="text_8">
    <!-- $f(R \cdot \mathbf{x})$ -->
    <g style="fill: #555555" transform="translate(347.406977 194.764755) scale(0.11 -0.11)">
     <use xlink:href="#DejaVuSans-Oblique-66" transform="translate(0 0.015625)"/>
     <use xlink:href="#DejaVuSans-28" transform="translate(35.205078 0.015625)"/>
     <use xlink:href="#DejaVuSans-Oblique-52" transform="translate(74.21875 0.015625)"/>
     <use xlink:href="#DejaVuSans-22c5" transform="translate(163.183594 0.015625)"/>
     <use xlink:href="#DejaVuSans-Bold-78" transform="translate(214.453125 0.015625)"/>
     <use xlink:href="#DejaVuSans-29" transform="translate(278.955078 0.015625)"/>
    </g>
   </g>
   <g id="text_9">
    <!-- both paths give the same result -->
    <g style="fill: #888888" transform="translate(141.529153 296.389254) scale(0.09 -0.09)">
     <defs>
      <path id="DejaVuSans-Oblique-62" d="M 3169 2138 
Q 3169 2591 2961 2847 
Q 2753 3103 2388 3103 
Q 2122 3103 1889 2973 
Q 1656 2844 1484 2597 
Q 1303 2338 1198 1995 
Q 1094 1653 1094 1313 
Q 1094 881 1298 636 
Q 1503 391 1863 391 
Q 2134 391 2365 517 
Q 2597 644 2772 891 
Q 2950 1147 3059 1487 
Q 3169 1828 3169 2138 
z
M 1381 2969 
Q 1594 3256 1914 3420 
Q 2234 3584 2584 3584 
Q 3122 3584 3439 3221 
Q 3756 2859 3756 2241 
Q 3756 1734 3570 1259 
Q 3384 784 3041 416 
Q 2816 172 2522 40 
Q 2228 -91 1906 -91 
Q 1566 -91 1316 65 
Q 1066 222 909 531 
L 806 0 
L 231 0 
L 1178 4863 
L 1753 4863 
L 1381 2969 
z
" transform="scale(0.015625)"/>
      <path id="DejaVuSans-Oblique-6f" d="M 1625 -91 
Q 1009 -91 651 289 
Q 294 669 294 1325 
Q 294 1706 417 2101 
Q 541 2497 738 2766 
Q 1047 3184 1428 3384 
Q 1809 3584 2291 3584 
Q 2888 3584 3255 3212 
Q 3622 2841 3622 2241 
Q 3622 1825 3500 1412 
Q 3378 1000 3181 728 
Q 2875 309 2494 109 
Q 2113 -91 1625 -91 
z
M 891 1344 
Q 891 869 1089 633 
Q 1288 397 1691 397 
Q 2269 397 2648 901 
Q 3028 1406 3028 2181 
Q 3028 2634 2825 2865 
Q 2622 3097 2228 3097 
Q 1903 3097 1650 2945 
Q 1397 2794 1197 2484 
Q 1050 2253 970 1956 
Q 891 1659 891 1344 
z
" transform="scale(0.015625)"/>
      <path id="DejaVuSans-Oblique-74" d="M 2706 3500 
L 2619 3053 
L 1472 3053 
L 1100 1153 
Q 1081 1047 1072 975 
Q 1063 903 1063 863 
Q 1063 663 1183 572 
Q 1303 481 1569 481 
L 2150 481 
L 2053 0 
L 1503 0 
Q 991 0 739 200 
Q 488 400 488 806 
Q 488 878 497 964 
Q 506 1050 525 1153 
L 897 3053 
L 409 3053 
L 500 3500 
L 978 3500 
L 1172 4494 
L 1747 4494 
L 1556 3500 
L 2706 3500 
z
" transform="scale(0.015625)"/>
      <path id="DejaVuSans-Oblique-68" d="M 3566 2113 
L 3156 0 
L 2578 0 
L 2988 2091 
Q 3016 2238 3031 2350 
Q 3047 2463 3047 2528 
Q 3047 2791 2881 2937 
Q 2716 3084 2419 3084 
Q 1956 3084 1617 2771 
Q 1278 2459 1178 1941 
L 800 0 
L 225 0 
L 1172 4863 
L 1747 4863 
L 1375 2950 
Q 1594 3244 1934 3414 
Q 2275 3584 2650 3584 
Q 3113 3584 3367 3334 
Q 3622 3084 3622 2631 
Q 3622 2519 3608 2391 
Q 3594 2263 3566 2113 
z
" transform="scale(0.015625)"/>
      <path id="DejaVuSans-Oblique-20" transform="scale(0.015625)"/>
      <path id="DejaVuSans-Oblique-70" d="M 3175 2156 
Q 3175 2616 2975 2859 
Q 2775 3103 2400 3103 
Q 2144 3103 1911 2972 
Q 1678 2841 1497 2591 
Q 1319 2344 1212 1994 
Q 1106 1644 1106 1300 
Q 1106 863 1306 627 
Q 1506 391 1875 391 
Q 2147 391 2380 519 
Q 2613 647 2778 891 
Q 2956 1147 3065 1494 
Q 3175 1841 3175 2156 
z
M 1394 2969 
Q 1625 3272 1939 3428 
Q 2253 3584 2638 3584 
Q 3175 3584 3472 3232 
Q 3769 2881 3769 2247 
Q 3769 1728 3584 1258 
Q 3400 788 3053 416 
Q 2822 169 2531 39 
Q 2241 -91 1919 -91 
Q 1547 -91 1294 64 
Q 1041 219 916 525 
L 556 -1331 
L -19 -1331 
L 922 3500 
L 1497 3500 
L 1394 2969 
z
" transform="scale(0.015625)"/>
      <path id="DejaVuSans-Oblique-61" d="M 3438 1997 
L 3047 0 
L 2472 0 
L 2578 531 
Q 2325 219 2001 64 
Q 1678 -91 1281 -91 
Q 834 -91 548 182 
Q 263 456 263 884 
Q 263 1497 752 1853 
Q 1241 2209 2100 2209 
L 2900 2209 
L 2931 2363 
Q 2938 2388 2941 2417 
Q 2944 2447 2944 2509 
Q 2944 2788 2717 2942 
Q 2491 3097 2081 3097 
Q 1800 3097 1504 3025 
Q 1209 2953 897 2809 
L 997 3341 
Q 1322 3463 1633 3523 
Q 1944 3584 2234 3584 
Q 2853 3584 3176 3315 
Q 3500 3047 3500 2534 
Q 3500 2431 3484 2292 
Q 3469 2153 3438 1997 
z
M 2816 1759 
L 2241 1759 
Q 1534 1759 1195 1570 
Q 856 1381 856 984 
Q 856 709 1029 553 
Q 1203 397 1509 397 
Q 1978 397 2328 733 
Q 2678 1069 2791 1631 
L 2816 1759 
z
" transform="scale(0.015625)"/>
      <path id="DejaVuSans-Oblique-73" d="M 3200 3397 
L 3091 2853 
Q 2863 2978 2609 3040 
Q 2356 3103 2088 3103 
Q 1634 3103 1373 2948 
Q 1113 2794 1113 2528 
Q 1113 2219 1719 2053 
Q 1766 2041 1788 2034 
L 1972 1978 
Q 2547 1819 2739 1644 
Q 2931 1469 2931 1166 
Q 2931 609 2489 259 
Q 2047 -91 1331 -91 
Q 1053 -91 747 -37 
Q 441 16 72 128 
L 184 722 
Q 500 559 806 475 
Q 1113 391 1394 391 
Q 1816 391 2080 572 
Q 2344 753 2344 1031 
Q 2344 1331 1650 1516 
L 1591 1531 
L 1394 1581 
Q 956 1697 753 1886 
Q 550 2075 550 2369 
Q 550 2928 970 3256 
Q 1391 3584 2113 3584 
Q 2397 3584 2667 3537 
Q 2938 3491 3200 3397 
z
" transform="scale(0.015625)"/>
      <path id="DejaVuSans-Oblique-67" d="M 3816 3500 
L 3219 434 
Q 3047 -456 2561 -893 
Q 2075 -1331 1253 -1331 
Q 950 -1331 690 -1286 
Q 431 -1241 206 -1147 
L 313 -588 
Q 525 -725 762 -790 
Q 1000 -856 1269 -856 
Q 1816 -856 2167 -557 
Q 2519 -259 2631 300 
L 2681 563 
Q 2441 288 2122 144 
Q 1803 0 1434 0 
Q 903 0 598 351 
Q 294 703 294 1319 
Q 294 1803 478 2267 
Q 663 2731 997 3091 
Q 1219 3328 1514 3456 
Q 1809 3584 2131 3584 
Q 2484 3584 2746 3420 
Q 3009 3256 3138 2956 
L 3238 3500 
L 3816 3500 
z
M 2950 2216 
Q 2950 2641 2750 2872 
Q 2550 3103 2181 3103 
Q 1953 3103 1747 3012 
Q 1541 2922 1394 2759 
Q 1156 2491 1023 2127 
Q 891 1763 891 1375 
Q 891 944 1092 712 
Q 1294 481 1672 481 
Q 2219 481 2584 976 
Q 2950 1472 2950 2216 
z
" transform="scale(0.015625)"/>
      <path id="DejaVuSans-Oblique-69" d="M 1172 4863 
L 1747 4863 
L 1606 4134 
L 1031 4134 
L 1172 4863 
z
M 909 3500 
L 1484 3500 
L 800 0 
L 225 0 
L 909 3500 
z
" transform="scale(0.015625)"/>
      <path id="DejaVuSans-Oblique-76" d="M 459 3500 
L 1069 3500 
L 1581 525 
L 3256 3500 
L 3866 3500 
L 1875 0 
L 1100 0 
L 459 3500 
z
" transform="scale(0.015625)"/>
      <path id="DejaVuSans-Oblique-65" d="M 3078 2063 
Q 3088 2113 3092 2166 
Q 3097 2219 3097 2272 
Q 3097 2653 2873 2875 
Q 2650 3097 2266 3097 
Q 1838 3097 1509 2826 
Q 1181 2556 1013 2059 
L 3078 2063 
z
M 3578 1613 
L 903 1613 
Q 884 1494 878 1425 
Q 872 1356 872 1306 
Q 872 872 1139 634 
Q 1406 397 1894 397 
Q 2269 397 2603 481 
Q 2938 566 3225 728 
L 3116 159 
Q 2806 34 2476 -28 
Q 2147 -91 1806 -91 
Q 1078 -91 686 257 
Q 294 606 294 1247 
Q 294 1794 489 2264 
Q 684 2734 1063 3103 
Q 1306 3334 1642 3459 
Q 1978 3584 2356 3584 
Q 2950 3584 3301 3228 
Q 3653 2872 3653 2272 
Q 3653 2128 3634 1964 
Q 3616 1800 3578 1613 
z
" transform="scale(0.015625)"/>
      <path id="DejaVuSans-Oblique-6d" d="M 5747 2113 
L 5338 0 
L 4763 0 
L 5166 2094 
Q 5191 2228 5203 2325 
Q 5216 2422 5216 2491 
Q 5216 2772 5059 2928 
Q 4903 3084 4622 3084 
Q 4203 3084 3875 2770 
Q 3547 2456 3450 1953 
L 3066 0 
L 2491 0 
L 2900 2094 
Q 2925 2209 2937 2307 
Q 2950 2406 2950 2484 
Q 2950 2769 2794 2926 
Q 2638 3084 2363 3084 
Q 1938 3084 1609 2770 
Q 1281 2456 1184 1953 
L 800 0 
L 225 0 
L 909 3500 
L 1484 3500 
L 1375 2956 
Q 1609 3263 1923 3423 
Q 2238 3584 2597 3584 
Q 2978 3584 3223 3384 
Q 3469 3184 3519 2828 
Q 3781 3197 4126 3390 
Q 4472 3584 4856 3584 
Q 5306 3584 5551 3325 
Q 5797 3066 5797 2591 
Q 5797 2488 5784 2364 
Q 5772 2241 5747 2113 
z
" transform="scale(0.015625)"/>
      <path id="DejaVuSans-Oblique-72" d="M 2853 2969 
Q 2766 3016 2653 3041 
Q 2541 3066 2413 3066 
Q 1953 3066 1609 2717 
Q 1266 2369 1153 1784 
L 800 0 
L 225 0 
L 909 3500 
L 1484 3500 
L 1375 2956 
Q 1603 3259 1920 3421 
Q 2238 3584 2597 3584 
Q 2691 3584 2781 3573 
Q 2872 3563 2963 3538 
L 2853 2969 
z
" transform="scale(0.015625)"/>
      <path id="DejaVuSans-Oblique-75" d="M 428 1388 
L 838 3500 
L 1416 3500 
L 1006 1409 
Q 975 1256 961 1147 
Q 947 1038 947 966 
Q 947 700 1109 554 
Q 1272 409 1569 409 
Q 2031 409 2368 721 
Q 2706 1034 2809 1563 
L 3194 3500 
L 3769 3500 
L 3091 0 
L 2516 0 
L 2631 550 
Q 2388 244 2052 76 
Q 1716 -91 1338 -91 
Q 878 -91 622 161 
Q 366 413 366 863 
Q 366 956 381 1097 
Q 397 1238 428 1388 
z
" transform="scale(0.015625)"/>
      <path id="DejaVuSans-Oblique-6c" d="M 1172 4863 
L 1747 4863 
L 800 0 
L 225 0 
L 1172 4863 
z
" transform="scale(0.015625)"/>
     </defs>
     <use xlink:href="#DejaVuSans-Oblique-62"/>
     <use xlink:href="#DejaVuSans-Oblique-6f" transform="translate(63.476562 0)"/>
     <use xlink:href="#DejaVuSans-Oblique-74" transform="translate(124.658203 0)"/>
     <use xlink:href="#DejaVuSans-Oblique-68" transform="translate(163.867188 0)"/>
     <use xlink:href="#DejaVuSans-Oblique-20" transform="translate(227.246094 0)"/>
     <use xlink:href="#DejaVuSans-Oblique-70" transform="translate(259.033203 0)"/>
     <use xlink:href="#DejaVuSans-Oblique-61" transform="translate(322.509766 0)"/>
     <use xlink:href="#DejaVuSans-Oblique-74" transform="translate(383.789062 0)"/>
     <use xlink:href="#DejaVuSans-Oblique-68" transform="translate(422.998047 0)"/>
     <use xlink:href="#DejaVuSans-Oblique-73" transform="translate(486.376953 0)"/>
     <use xlink:href="#DejaVuSans-Oblique-20" transform="translate(538.476562 0)"/>
     <use xlink:href="#DejaVuSans-Oblique-67" transform="translate(570.263672 0)"/>
     <use xlink:href="#DejaVuSans-Oblique-69" transform="translate(633.740234 0)"/>
     <use xlink:href="#DejaVuSans-Oblique-76" transform="translate(661.523438 0)"/>
     <use xlink:href="#DejaVuSans-Oblique-65" transform="translate(720.703125 0)"/>
     <use xlink:href="#DejaVuSans-Oblique-20" transform="translate(782.226562 0)"/>
     <use xlink:href="#DejaVuSans-Oblique-74" transform="translate(814.013672 0)"/>
     <use xlink:href="#DejaVuSans-Oblique-68" transform="translate(853.222656 0)"/>
     <use xlink:href="#DejaVuSans-Oblique-65" transform="translate(916.601562 0)"/>
     <use xlink:href="#DejaVuSans-Oblique-20" transform="translate(978.125 0)"/>
     <use xlink:href="#DejaVuSans-Oblique-73" transform="translate(1009.912109 0)"/>
     <use xlink:href="#DejaVuSans-Oblique-61" transform="translate(1062.011719 0)"/>
     <use xlink:href="#DejaVuSans-Oblique-6d" transform="translate(1123.291016 0)"/>
     <use xlink:href="#DejaVuSans-Oblique-65" transform="translate(1220.703125 0)"/>
     <use xlink:href="#DejaVuSans-Oblique-20" transform="translate(1282.226562 0)"/>
     <use xlink:href="#DejaVuSans-Oblique-72" transform="translate(1314.013672 0)"/>
     <use xlink:href="#DejaVuSans-Oblique-65" transform="translate(1355.126953 0)"/>
     <use xlink:href="#DejaVuSans-Oblique-73" transform="translate(1416.650391 0)"/>
     <use xlink:href="#DejaVuSans-Oblique-75" transform="translate(1468.75 0)"/>
     <use xlink:href="#DejaVuSans-Oblique-6c" transform="translate(1532.128906 0)"/>
     <use xlink:href="#DejaVuSans-Oblique-74" transform="translate(1559.912109 0)"/>
    </g>
   </g>
   <g id="text_10">
    <!-- Equivariance: rotating the input then predicting -->
    <g style="fill: #333333" transform="translate(50.339935 16.318125) scale(0.12 -0.12)">
     <defs>
      <path id="DejaVuSans-Bold-45" d="M 588 4666 
L 3834 4666 
L 3834 3756 
L 1791 3756 
L 1791 2888 
L 3713 2888 
L 3713 1978 
L 1791 1978 
L 1791 909 
L 3903 909 
L 3903 0 
L 588 0 
L 588 4666 
z
" transform="scale(0.015625)"/>
      <path id="DejaVuSans-Bold-71" d="M 2181 2772 
Q 1825 2772 1636 2509 
Q 1447 2247 1447 1747 
Q 1447 1247 1636 984 
Q 1825 722 2181 722 
Q 2541 722 2730 984 
Q 2919 1247 2919 1747 
Q 2919 2247 2730 2509 
Q 2541 2772 2181 2772 
z
M 2919 506 
Q 2688 197 2409 53 
Q 2131 -91 1766 -91 
Q 1119 -91 703 423 
Q 288 938 288 1747 
Q 288 2556 703 3067 
Q 1119 3578 1766 3578 
Q 2131 3578 2409 3434 
Q 2688 3291 2919 2981 
L 2919 3500 
L 4044 3500 
L 4044 -1331 
L 2919 -1331 
L 2919 506 
z
" transform="scale(0.015625)"/>
      <path id="DejaVuSans-Bold-75" d="M 500 1363 
L 500 3500 
L 1625 3500 
L 1625 3150 
Q 1625 2866 1622 2436 
Q 1619 2006 1619 1863 
Q 1619 1441 1641 1255 
Q 1663 1069 1716 984 
Q 1784 875 1895 815 
Q 2006 756 2150 756 
Q 2500 756 2700 1025 
Q 2900 1294 2900 1772 
L 2900 3500 
L 4019 3500 
L 4019 0 
L 2900 0 
L 2900 506 
Q 2647 200 2364 54 
Q 2081 -91 1741 -91 
Q 1134 -91 817 281 
Q 500 653 500 1363 
z
" transform="scale(0.015625)"/>
      <path id="DejaVuSans-Bold-69" d="M 538 3500 
L 1656 3500 
L 1656 0 
L 538 0 
L 538 3500 
z
M 538 4863 
L 1656 4863 
L 1656 3950 
L 538 3950 
L 538 4863 
z
" transform="scale(0.015625)"/>
      <path id="DejaVuSans-Bold-76" d="M 97 3500 
L 1216 3500 
L 2088 1081 
L 2956 3500 
L 4078 3500 
L 2700 0 
L 1472 0 
L 97 3500 
z
" transform="scale(0.015625)"/>
      <path id="DejaVuSans-Bold-61" d="M 2106 1575 
Q 1756 1575 1579 1456 
Q 1403 1338 1403 1106 
Q 1403 894 1545 773 
Q 1688 653 1941 653 
Q 2256 653 2472 879 
Q 2688 1106 2688 1447 
L 2688 1575 
L 2106 1575 
z
M 3816 1997 
L 3816 0 
L 2688 0 
L 2688 519 
Q 2463 200 2181 54 
Q 1900 -91 1497 -91 
Q 953 -91 614 226 
Q 275 544 275 1050 
Q 275 1666 698 1953 
Q 1122 2241 2028 2241 
L 2688 2241 
L 2688 2328 
Q 2688 2594 2478 2717 
Q 2269 2841 1825 2841 
Q 1466 2841 1156 2769 
Q 847 2697 581 2553 
L 581 3406 
Q 941 3494 1303 3539 
Q 1666 3584 2028 3584 
Q 2975 3584 3395 3211 
Q 3816 2838 3816 1997 
z
" transform="scale(0.015625)"/>
      <path id="DejaVuSans-Bold-72" d="M 3138 2547 
Q 2991 2616 2845 2648 
Q 2700 2681 2553 2681 
Q 2122 2681 1889 2404 
Q 1656 2128 1656 1613 
L 1656 0 
L 538 0 
L 538 3500 
L 1656 3500 
L 1656 2925 
Q 1872 3269 2151 3426 
Q 2431 3584 2822 3584 
Q 2878 3584 2943 3579 
Q 3009 3575 3134 3559 
L 3138 2547 
z
" transform="scale(0.015625)"/>
      <path id="DejaVuSans-Bold-6e" d="M 4056 2131 
L 4056 0 
L 2931 0 
L 2931 347 
L 2931 1631 
Q 2931 2084 2911 2256 
Q 2891 2428 2841 2509 
Q 2775 2619 2662 2680 
Q 2550 2741 2406 2741 
Q 2056 2741 1856 2470 
Q 1656 2200 1656 1722 
L 1656 0 
L 538 0 
L 538 3500 
L 1656 3500 
L 1656 2988 
Q 1909 3294 2193 3439 
Q 2478 3584 2822 3584 
Q 3428 3584 3742 3212 
Q 4056 2841 4056 2131 
z
" transform="scale(0.015625)"/>
      <path id="DejaVuSans-Bold-63" d="M 3366 3391 
L 3366 2478 
Q 3138 2634 2908 2709 
Q 2678 2784 2431 2784 
Q 1963 2784 1702 2511 
Q 1441 2238 1441 1747 
Q 1441 1256 1702 982 
Q 1963 709 2431 709 
Q 2694 709 2930 787 
Q 3166 866 3366 1019 
L 3366 103 
Q 3103 6 2833 -42 
Q 2563 -91 2291 -91 
Q 1344 -91 809 395 
Q 275 881 275 1747 
Q 275 2613 809 3098 
Q 1344 3584 2291 3584 
Q 2566 3584 2833 3536 
Q 3100 3488 3366 3391 
z
" transform="scale(0.015625)"/>
      <path id="DejaVuSans-Bold-65" d="M 4031 1759 
L 4031 1441 
L 1416 1441 
Q 1456 1047 1700 850 
Q 1944 653 2381 653 
Q 2734 653 3104 758 
Q 3475 863 3866 1075 
L 3866 213 
Q 3469 63 3072 -14 
Q 2675 -91 2278 -91 
Q 1328 -91 801 392 
Q 275 875 275 1747 
Q 275 2603 792 3093 
Q 1309 3584 2216 3584 
Q 3041 3584 3536 3087 
Q 4031 2591 4031 1759 
z
M 2881 2131 
Q 2881 2450 2695 2645 
Q 2509 2841 2209 2841 
Q 1884 2841 1681 2658 
Q 1478 2475 1428 2131 
L 2881 2131 
z
" transform="scale(0.015625)"/>
      <path id="DejaVuSans-Bold-3a" d="M 716 3500 
L 1844 3500 
L 1844 2291 
L 716 2291 
L 716 3500 
z
M 716 1209 
L 1844 1209 
L 1844 0 
L 716 0 
L 716 1209 
z
" transform="scale(0.015625)"/>
      <path id="DejaVuSans-Bold-20" transform="scale(0.015625)"/>
      <path id="DejaVuSans-Bold-6f" d="M 2203 2784 
Q 1831 2784 1636 2517 
Q 1441 2250 1441 1747 
Q 1441 1244 1636 976 
Q 1831 709 2203 709 
Q 2569 709 2762 976 
Q 2956 1244 2956 1747 
Q 2956 2250 2762 2517 
Q 2569 2784 2203 2784 
z
M 2203 3584 
Q 3106 3584 3614 3096 
Q 4122 2609 4122 1747 
Q 4122 884 3614 396 
Q 3106 -91 2203 -91 
Q 1297 -91 786 396 
Q 275 884 275 1747 
Q 275 2609 786 3096 
Q 1297 3584 2203 3584 
z
" transform="scale(0.015625)"/>
      <path id="DejaVuSans-Bold-74" d="M 1759 4494 
L 1759 3500 
L 2913 3500 
L 2913 2700 
L 1759 2700 
L 1759 1216 
Q 1759 972 1856 886 
Q 1953 800 2241 800 
L 2816 800 
L 2816 0 
L 1856 0 
Q 1194 0 917 276 
Q 641 553 641 1216 
L 641 2700 
L 84 2700 
L 84 3500 
L 641 3500 
L 641 4494 
L 1759 4494 
z
" transform="scale(0.015625)"/>
      <path id="DejaVuSans-Bold-67" d="M 2919 594 
Q 2688 288 2409 144 
Q 2131 0 1766 0 
Q 1125 0 706 504 
Q 288 1009 288 1791 
Q 288 2575 706 3076 
Q 1125 3578 1766 3578 
Q 2131 3578 2409 3434 
Q 2688 3291 2919 2981 
L 2919 3500 
L 4044 3500 
L 4044 353 
Q 4044 -491 3511 -936 
Q 2978 -1381 1966 -1381 
Q 1638 -1381 1331 -1331 
Q 1025 -1281 716 -1178 
L 716 -306 
Q 1009 -475 1290 -558 
Q 1572 -641 1856 -641 
Q 2406 -641 2662 -400 
Q 2919 -159 2919 353 
L 2919 594 
z
M 2181 2772 
Q 1834 2772 1640 2515 
Q 1447 2259 1447 1791 
Q 1447 1309 1634 1061 
Q 1822 813 2181 813 
Q 2531 813 2725 1069 
Q 2919 1325 2919 1791 
Q 2919 2259 2725 2515 
Q 2531 2772 2181 2772 
z
" transform="scale(0.015625)"/>
      <path id="DejaVuSans-Bold-68" d="M 4056 2131 
L 4056 0 
L 2931 0 
L 2931 347 
L 2931 1625 
Q 2931 2084 2911 2256 
Q 2891 2428 2841 2509 
Q 2775 2619 2662 2680 
Q 2550 2741 2406 2741 
Q 2056 2741 1856 2470 
Q 1656 2200 1656 1722 
L 1656 0 
L 538 0 
L 538 4863 
L 1656 4863 
L 1656 2988 
Q 1909 3294 2193 3439 
Q 2478 3584 2822 3584 
Q 3428 3584 3742 3212 
Q 4056 2841 4056 2131 
z
" transform="scale(0.015625)"/>
      <path id="DejaVuSans-Bold-70" d="M 1656 506 
L 1656 -1331 
L 538 -1331 
L 538 3500 
L 1656 3500 
L 1656 2988 
Q 1888 3294 2169 3439 
Q 2450 3584 2816 3584 
Q 3463 3584 3878 3070 
Q 4294 2556 4294 1747 
Q 4294 938 3878 423 
Q 3463 -91 2816 -91 
Q 2450 -91 2169 54 
Q 1888 200 1656 506 
z
M 2400 2772 
Q 2041 2772 1848 2508 
Q 1656 2244 1656 1747 
Q 1656 1250 1848 986 
Q 2041 722 2400 722 
Q 2759 722 2948 984 
Q 3138 1247 3138 1747 
Q 3138 2247 2948 2509 
Q 2759 2772 2400 2772 
z
" transform="scale(0.015625)"/>
      <path id="DejaVuSans-Bold-64" d="M 2919 2988 
L 2919 4863 
L 4044 4863 
L 4044 0 
L 2919 0 
L 2919 506 
Q 2688 197 2409 53 
Q 2131 -91 1766 -91 
Q 1119 -91 703 423 
Q 288 938 288 1747 
Q 288 2556 703 3070 
Q 1119 3584 1766 3584 
Q 2128 3584 2408 3439 
Q 2688 3294 2919 2988 
z
M 2181 722 
Q 2541 722 2730 984 
Q 2919 1247 2919 1747 
Q 2919 2247 2730 2509 
Q 2541 2772 2181 2772 
Q 1825 2772 1636 2509 
Q 1447 2247 1447 1747 
Q 1447 1247 1636 984 
Q 1825 722 2181 722 
z
" transform="scale(0.015625)"/>
     </defs>
     <use xlink:href="#DejaVuSans-Bold-45"/>
     <use xlink:href="#DejaVuSans-Bold-71" transform="translate(68.310547 0)"/>
     <use xlink:href="#DejaVuSans-Bold-75" transform="translate(139.892578 0)"/>
     <use xlink:href="#DejaVuSans-Bold-69" transform="translate(211.083984 0)"/>
     <use xlink:href="#DejaVuSans-Bold-76" transform="translate(245.361328 0)"/>
     <use xlink:href="#DejaVuSans-Bold-61" transform="translate(310.546875 0)"/>
     <use xlink:href="#DejaVuSans-Bold-72" transform="translate(378.027344 0)"/>
     <use xlink:href="#DejaVuSans-Bold-69" transform="translate(427.34375 0)"/>
     <use xlink:href="#DejaVuSans-Bold-61" transform="translate(461.621094 0)"/>
     <use xlink:href="#DejaVuSans-Bold-6e" transform="translate(529.101562 0)"/>
     <use xlink:href="#DejaVuSans-Bold-63" transform="translate(600.292969 0)"/>
     <use xlink:href="#DejaVuSans-Bold-65" transform="translate(659.570312 0)"/>
     <use xlink:href="#DejaVuSans-Bold-3a" transform="translate(727.392578 0)"/>
     <use xlink:href="#DejaVuSans-Bold-20" transform="translate(767.382812 0)"/>
     <use xlink:href="#DejaVuSans-Bold-72" transform="translate(802.197266 0)"/>
     <use xlink:href="#DejaVuSans-Bold-6f" transform="translate(851.513672 0)"/>
     <use xlink:href="#DejaVuSans-Bold-74" transform="translate(920.214844 0)"/>
     <use xlink:href="#DejaVuSans-Bold-61" transform="translate(968.017578 0)"/>
     <use xlink:href="#DejaVuSans-Bold-74" transform="translate(1035.498047 0)"/>
     <use xlink:href="#DejaVuSans-Bold-69" transform="translate(1083.300781 0)"/>
     <use xlink:href="#DejaVuSans-Bold-6e" transform="translate(1117.578125 0)"/>
     <use xlink:href="#DejaVuSans-Bold-67" transform="translate(1188.769531 0)"/>
     <use xlink:href="#DejaVuSans-Bold-20" transform="translate(1260.351562 0)"/>
     <use xlink:href="#DejaVuSans-Bold-74" transform="translate(1295.166016 0)"/>
     <use xlink:href="#DejaVuSans-Bold-68" transform="translate(1342.96875 0)"/>
     <use xlink:href="#DejaVuSans-Bold-65" transform="translate(1414.160156 0)"/>
     <use xlink:href="#DejaVuSans-Bold-20" transform="translate(1481.982422 0)"/>
     <use xlink:href="#DejaVuSans-Bold-69" transform="translate(1516.796875 0)"/>
     <use xlink:href="#DejaVuSans-Bold-6e" transform="translate(1551.074219 0)"/>
     <use xlink:href="#DejaVuSans-Bold-70" transform="translate(1622.265625 0)"/>
     <use xlink:href="#DejaVuSans-Bold-75" transform="translate(1693.847656 0)"/>
     <use xlink:href="#DejaVuSans-Bold-74" transform="translate(1765.039062 0)"/>
     <use xlink:href="#DejaVuSans-Bold-20" transform="translate(1812.841797 0)"/>
     <use xlink:href="#DejaVuSans-Bold-74" transform="translate(1847.65625 0)"/>
     <use xlink:href="#DejaVuSans-Bold-68" transform="translate(1895.458984 0)"/>
     <use xlink:href="#DejaVuSans-Bold-65" transform="translate(1966.650391 0)"/>
     <use xlink:href="#DejaVuSans-Bold-6e" transform="translate(2034.472656 0)"/>
     <use xlink:href="#DejaVuSans-Bold-20" transform="translate(2105.664062 0)"/>
     <use xlink:href="#DejaVuSans-Bold-70" transform="translate(2140.478516 0)"/>
     <use xlink:href="#DejaVuSans-Bold-72" transform="translate(2212.060547 0)"/>
     <use xlink:href="#DejaVuSans-Bold-65" transform="translate(2261.376953 0)"/>
     <use xlink:href="#DejaVuSans-Bold-64" transform="translate(2329.199219 0)"/>
     <use xlink:href="#DejaVuSans-Bold-69" transform="translate(2400.78125 0)"/>
     <use xlink:href="#DejaVuSans-Bold-63" transform="translate(2435.058594 0)"/>
     <use xlink:href="#DejaVuSans-Bold-74" transform="translate(2494.335938 0)"/>
     <use xlink:href="#DejaVuSans-Bold-69" transform="translate(2542.138672 0)"/>
     <use xlink:href="#DejaVuSans-Bold-6e" transform="translate(2576.416016 0)"/>
     <use xlink:href="#DejaVuSans-Bold-67" transform="translate(2647.607422 0)"/>
    </g>
    <!-- is the same as predicting then rotating -->
    <g style="fill: #333333" transform="translate(80.86681 31.672875) scale(0.12 -0.12)">
     <defs>
      <path id="DejaVuSans-Bold-73" d="M 3272 3391 
L 3272 2541 
Q 2913 2691 2578 2766 
Q 2244 2841 1947 2841 
Q 1628 2841 1473 2761 
Q 1319 2681 1319 2516 
Q 1319 2381 1436 2309 
Q 1553 2238 1856 2203 
L 2053 2175 
Q 2913 2066 3209 1816 
Q 3506 1566 3506 1031 
Q 3506 472 3093 190 
Q 2681 -91 1863 -91 
Q 1516 -91 1145 -36 
Q 775 19 384 128 
L 384 978 
Q 719 816 1070 734 
Q 1422 653 1784 653 
Q 2113 653 2278 743 
Q 2444 834 2444 1013 
Q 2444 1163 2330 1236 
Q 2216 1309 1875 1350 
L 1678 1375 
Q 931 1469 631 1722 
Q 331 1975 331 2491 
Q 331 3047 712 3315 
Q 1094 3584 1881 3584 
Q 2191 3584 2531 3537 
Q 2872 3491 3272 3391 
z
" transform="scale(0.015625)"/>
      <path id="DejaVuSans-Bold-6d" d="M 3781 2919 
Q 3994 3244 4286 3414 
Q 4578 3584 4928 3584 
Q 5531 3584 5847 3212 
Q 6163 2841 6163 2131 
L 6163 0 
L 5038 0 
L 5038 1825 
Q 5041 1866 5042 1909 
Q 5044 1953 5044 2034 
Q 5044 2406 4934 2573 
Q 4825 2741 4581 2741 
Q 4263 2741 4089 2478 
Q 3916 2216 3909 1719 
L 3909 0 
L 2784 0 
L 2784 1825 
Q 2784 2406 2684 2573 
Q 2584 2741 2328 2741 
Q 2006 2741 1831 2477 
Q 1656 2213 1656 1722 
L 1656 0 
L 531 0 
L 531 3500 
L 1656 3500 
L 1656 2988 
Q 1863 3284 2130 3434 
Q 2397 3584 2719 3584 
Q 3081 3584 3359 3409 
Q 3638 3234 3781 2919 
z
" transform="scale(0.015625)"/>
     </defs>
     <use xlink:href="#DejaVuSans-Bold-69"/>
     <use xlink:href="#DejaVuSans-Bold-73" transform="translate(34.277344 0)"/>
     <use xlink:href="#DejaVuSans-Bold-20" transform="translate(93.798828 0)"/>
     <use xlink:href="#DejaVuSans-Bold-74" transform="translate(128.613281 0)"/>
     <use xlink:href="#DejaVuSans-Bold-68" transform="translate(176.416016 0)"/>
     <use xlink:href="#DejaVuSans-Bold-65" transform="translate(247.607422 0)"/>
     <use xlink:href="#DejaVuSans-Bold-20" transform="translate(315.429688 0)"/>
     <use xlink:href="#DejaVuSans-Bold-73" transform="translate(350.244141 0)"/>
     <use xlink:href="#DejaVuSans-Bold-61" transform="translate(409.765625 0)"/>
     <use xlink:href="#DejaVuSans-Bold-6d" transform="translate(477.246094 0)"/>
     <use xlink:href="#DejaVuSans-Bold-65" transform="translate(581.445312 0)"/>
     <use xlink:href="#DejaVuSans-Bold-20" transform="translate(649.267578 0)"/>
     <use xlink:href="#DejaVuSans-Bold-61" transform="translate(684.082031 0)"/>
     <use xlink:href="#DejaVuSans-Bold-73" transform="translate(751.5625 0)"/>
     <use xlink:href="#DejaVuSans-Bold-20" transform="translate(811.083984 0)"/>
     <use xlink:href="#DejaVuSans-Bold-70" transform="translate(845.898438 0)"/>
     <use xlink:href="#DejaVuSans-Bold-72" transform="translate(917.480469 0)"/>
     <use xlink:href="#DejaVuSans-Bold-65" transform="translate(966.796875 0)"/>
     <use xlink:href="#DejaVuSans-Bold-64" transform="translate(1034.619141 0)"/>
     <use xlink:href="#DejaVuSans-Bold-69" transform="translate(1106.201172 0)"/>
     <use xlink:href="#DejaVuSans-Bold-63" transform="translate(1140.478516 0)"/>
     <use xlink:href="#DejaVuSans-Bold-74" transform="translate(1199.755859 0)"/>
     <use xlink:href="#DejaVuSans-Bold-69" transform="translate(1247.558594 0)"/>
     <use xlink:href="#DejaVuSans-Bold-6e" transform="translate(1281.835938 0)"/>
     <use xlink:href="#DejaVuSans-Bold-67" transform="translate(1353.027344 0)"/>
     <use xlink:href="#DejaVuSans-Bold-20" transform="translate(1424.609375 0)"/>
     <use xlink:href="#DejaVuSans-Bold-74" transform="translate(1459.423828 0)"/>
     <use xlink:href="#DejaVuSans-Bold-68" transform="translate(1507.226562 0)"/>
     <use xlink:href="#DejaVuSans-Bold-65" transform="translate(1578.417969 0)"/>
     <use xlink:href="#DejaVuSans-Bold-6e" transform="translate(1646.240234 0)"/>
     <use xlink:href="#DejaVuSans-Bold-20" transform="translate(1717.431641 0)"/>
     <use xlink:href="#DejaVuSans-Bold-72" transform="translate(1752.246094 0)"/>
     <use xlink:href="#DejaVuSans-Bold-6f" transform="translate(1801.5625 0)"/>
     <use xlink:href="#DejaVuSans-Bold-74" transform="translate(1870.263672 0)"/>
     <use xlink:href="#DejaVuSans-Bold-61" transform="translate(1918.066406 0)"/>
     <use xlink:href="#DejaVuSans-Bold-74" transform="translate(1985.546875 0)"/>
     <use xlink:href="#DejaVuSans-Bold-69" transform="translate(2033.349609 0)"/>
     <use xlink:href="#DejaVuSans-Bold-6e" transform="translate(2067.626953 0)"/>
     <use xlink:href="#DejaVuSans-Bold-67" transform="translate(2138.818359 0)"/>
    </g>
   </g>
   <g id="text_11">
    <!-- O -->
    <g style="fill: #ffffff" transform="translate(94.475616 85.838501) scale(0.07 -0.07)">
     <defs>
      <path id="DejaVuSans-Bold-4f" d="M 2719 3878 
Q 2169 3878 1866 3472 
Q 1563 3066 1563 2328 
Q 1563 1594 1866 1187 
Q 2169 781 2719 781 
Q 3272 781 3575 1187 
Q 3878 1594 3878 2328 
Q 3878 3066 3575 3472 
Q 3272 3878 2719 3878 
z
M 2719 4750 
Q 3844 4750 4481 4106 
Q 5119 3463 5119 2328 
Q 5119 1197 4481 553 
Q 3844 -91 2719 -91 
Q 1597 -91 958 553 
Q 319 1197 319 2328 
Q 319 3463 958 4106 
Q 1597 4750 2719 4750 
z
" transform="scale(0.015625)"/>
     </defs>
     <use xlink:href="#DejaVuSans-Bold-4f"/>
    </g>
   </g>
   <g id="text_12">
    <!-- H -->
    <g style="fill: #ffffff" transform="translate(75.182565 105.178036) scale(0.07 -0.07)">
     <defs>
      <path id="DejaVuSans-Bold-48" d="M 588 4666 
L 1791 4666 
L 1791 2888 
L 3566 2888 
L 3566 4666 
L 4769 4666 
L 4769 0 
L 3566 0 
L 3566 1978 
L 1791 1978 
L 1791 0 
L 588 0 
L 588 4666 
z
" transform="scale(0.015625)"/>
     </defs>
     <use xlink:href="#DejaVuSans-Bold-48"/>
    </g>
   </g>
   <g id="text_13">
    <!-- H -->
    <g style="fill: #ffffff" transform="translate(113.861635 105.178036) scale(0.07 -0.07)">
     <use xlink:href="#DejaVuSans-Bold-48"/>
    </g>
   </g>
   <g id="text_14">
    <!-- O -->
    <g style="fill: #ffffff" transform="translate(320.213227 89.137235) scale(0.07 -0.07)">
     <use xlink:href="#DejaVuSans-Bold-4f"/>
    </g>
   </g>
   <g id="text_15">
    <!-- H -->
    <g style="fill: #ffffff" transform="translate(325.009029 116.071956) scale(0.07 -0.07)">
     <use xlink:href="#DejaVuSans-Bold-48"/>
    </g>
   </g>
   <g id="text_16">
    <!-- H -->
    <g style="fill: #ffffff" transform="translate(347.194432 84.387917) scale(0.07 -0.07)">
     <use xlink:href="#DejaVuSans-Bold-48"/>
    </g>
   </g>
   <g id="text_17">
    <!-- O -->
    <g style="fill: #ffffff" transform="translate(94.475616 221.215246) scale(0.07 -0.07)">
     <use xlink:href="#DejaVuSans-Bold-4f"/>
    </g>
   </g>
   <g id="text_18">
    <!-- H -->
    <g style="fill: #ffffff" transform="translate(75.182565 240.554781) scale(0.07 -0.07)">
     <use xlink:href="#DejaVuSans-Bold-48"/>
    </g>
   </g>
   <g id="text_19">
    <!-- H -->
    <g style="fill: #ffffff" transform="translate(113.861635 240.554781) scale(0.07 -0.07)">
     <use xlink:href="#DejaVuSans-Bold-48"/>
    </g>
   </g>
   <g id="text_20">
    <!-- O -->
    <g style="fill: #ffffff" transform="translate(320.213227 224.513979) scale(0.07 -0.07)">
     <use xlink:href="#DejaVuSans-Bold-4f"/>
    </g>
   </g>
   <g id="text_21">
    <!-- H -->
    <g style="fill: #ffffff" transform="translate(325.009029 251.4487) scale(0.07 -0.07)">
     <use xlink:href="#DejaVuSans-Bold-48"/>
    </g>
   </g>
   <g id="text_22">
    <!-- H -->
    <g style="fill: #ffffff" transform="translate(347.194432 219.764661) scale(0.07 -0.07)">
     <use xlink:href="#DejaVuSans-Bold-48"/>
    </g>
   </g>
   <g id="patch_18">
    <path d="M 97.451163 213.452549 
Q 97.451163 206.698349 97.451163 201.245857 
" style="fill: none; stroke: #e8a020; stroke-width: 2; stroke-linecap: round"/>
    <path d="M 96.251163 202.245857 
L 97.451163 201.245857 
L 98.651163 202.245857 
" style="fill: none; stroke: #e8a020; stroke-width: 2; stroke-linecap: round"/>
   </g>
   <g id="patch_19">
    <path d="M 73.110702 241.623773 
Q 67.553026 244.958379 63.111554 247.623262 
" style="fill: none; stroke: #e8a020; stroke-width: 2; stroke-linecap: round"/>
    <path d="M 64.586442 248.137758 
L 63.111554 247.623262 
L 63.351652 246.079775 
" style="fill: none; stroke: #e8a020; stroke-width: 2; stroke-linecap: round"/>
   </g>
   <g id="patch_20">
    <path d="M 121.791623 241.623773 
Q 127.3493 244.958379 131.790771 247.623262 
" style="fill: none; stroke: #e8a020; stroke-width: 2; stroke-linecap: round"/>
    <path d="M 131.550673 246.079775 
L 131.790771 247.623262 
L 130.315883 248.137758 
" style="fill: none; stroke: #e8a020; stroke-width: 2; stroke-linecap: round"/>
   </g>
   <g id="patch_21">
    <path d="M 318.412188 219.237815 
Q 312.879471 215.363765 308.413051 212.236344 
" style="fill: none; stroke: #e8a020; stroke-width: 2; stroke-linecap: round"/>
    <path d="M 308.543911 213.792903 
L 308.413051 212.236344 
L 309.920495 211.826938 
" style="fill: none; stroke: #e8a020; stroke-width: 2; stroke-linecap: round"/>
   </g>
   <g id="patch_22">
    <path d="M 327.52759 255.334704 
Q 327.071387 261.799937 326.706807 266.966692 
" style="fill: none; stroke: #e8a020; stroke-width: 2; stroke-linecap: round"/>
    <path d="M 327.974219 266.053637 
L 326.706807 266.966692 
L 325.580171 265.884707 
" style="fill: none; stroke: #e8a020; stroke-width: 2; stroke-linecap: round"/>
   </g>
   <g id="patch_23">
    <path d="M 355.449819 215.457628 
Q 361.36912 212.817697 366.099588 210.707971 
" style="fill: none; stroke: #e8a020; stroke-width: 2; stroke-linecap: round"/>
    <path d="M 364.697522 210.01934 
L 366.099588 210.707971 
L 365.675077 212.211231 
" style="fill: none; stroke: #e8a020; stroke-width: 2; stroke-linecap: round"/>
   </g>
   <g id="patch_24">
    <path d="M 149.736606 91.642753 
Q 213.487812 91.642753 276.225528 91.642753 
" style="fill: none; stroke: #333333; stroke-width: 1.6; stroke-linecap: round"/>
    <path d="M 274.825528 89.842753 
L 276.225528 91.642753 
L 274.825528 93.442753 
" style="fill: none; stroke: #333333; stroke-width: 1.6; stroke-linecap: round"/>
   </g>
   <g id="patch_25">
    <path d="M 149.736606 227.019497 
Q 213.487812 227.019497 276.225528 227.019497 
" style="fill: none; stroke: #333333; stroke-width: 1.6; stroke-linecap: round"/>
    <path d="M 274.825528 225.219497 
L 276.225528 227.019497 
L 274.825528 228.819497 
" style="fill: none; stroke: #333333; stroke-width: 1.6; stroke-linecap: round"/>
   </g>
   <g id="patch_26">
    <path d="M 97.451163 134.255359 
Q 97.451163 159.329847 97.451163 183.390845 
" style="fill: none; stroke: #333333; stroke-width: 1.6; stroke-linecap: round"/>
    <path d="M 99.251163 181.990845 
L 97.451163 183.390845 
L 95.651163 181.990845 
" style="fill: none; stroke: #333333; stroke-width: 1.6; stroke-linecap: round"/>
   </g>
   <g id="patch_27">
    <path d="M 329.525581 134.255359 
Q 329.525581 159.329847 329.525581 183.390845 
" style="fill: none; stroke: #333333; stroke-width: 1.6; stroke-linecap: round"/>
    <path d="M 331.325581 181.990845 
L 329.525581 183.390845 
L 327.725581 181.990845 
" style="fill: none; stroke: #333333; stroke-width: 1.6; stroke-linecap: round"/>
   </g>
  </g>
 </g>
 <defs>
  <clipPath id="p23ac2de585">
   <rect x="7.2" y="11.061358" width="412.576744" height="277.2"/>
  </clipPath>
 </defs>
</svg>
